<svg xmlns="http://www.w3.org/2000/svg" viewBox="0 0 300 301"><defs><style>.cls-1{fill:none;}.cls-2{fill:#f15b26;}.cls-3{fill:#fff;}.cls-4{fill:#0e1840;}</style></defs><title>logo</title><g id="Layer_2" data-name="Layer 2"><path class="cls-1" d="M-.32-1" transform="translate(0.32 1)"/><polygon class="cls-2" points="0 0 0 261 151 301 300 261 300 1 0 0"/></g><g id="Layer_1" data-name="Layer 1"><path class="cls-3" d="M89,228c0-.26-.17-.39-.47-.39a8.29,8.29,0,0,0-1.46.13V227a7.54,7.54,0,0,0,4.28-2.48c.38-.39.51-.43.77-.43s1.49,1.2,1.49,1.58a6,6,0,0,1-.25,1.11c-1.8,6.33-3.76,13.64-4.92,18.51-.13.64-3.16.77-3.89.77a.27.27,0,0,1-.3-.3c0-.17.09-.26.26-.64s3.46-12.82,4.32-16.29A3.84,3.84,0,0,0,89,228Z" transform="translate(0.32 1)"/><path class="cls-3" d="M93.9,242.37a2,2,0,0,1,1.8-2.22,1.34,1.34,0,0,1,1.36,1.36c0,1.37-1.11,1.16-1.11,2.23s1.11,1.62,2.18,1.62c4.28,0,7.05-8.42,7.44-12.14-.9,1.71-3.25,3.94-6,3.94-2.22,0-5-1.33-5-4.54a9,9,0,0,1,8.72-8.59c2.69,0,6.58,1.67,6.58,7.4s-4.4,14.62-11.37,14.62C96.72,246.05,93.9,245.06,93.9,242.37Zm4.57-9.57c0,1.83.39,3.12,2.1,3.12,2.69,0,5.09-3.25,5.09-7.06,0-2.22-.65-4.19-2.53-4.19C99.54,224.67,98.47,229.93,98.47,232.8Z" transform="translate(0.32 1)"/><path class="cls-3" d="M126.68,227.2c0,1.83-.68,2.77-1.79,2.77a1.34,1.34,0,0,1-1.37-1.36c0-1.29,1.5-1.37,1.5-2.4s-1.07-1.49-2.14-1.49c-4,0-7,5.55-7.44,12.18,1-1.84,3.38-3.93,6.07-3.93,2.18,0,5,1.36,5,4.48a9,9,0,0,1-8.72,8.6c-2.69,0-6.58-1.54-6.58-7.4,0-8.33,6-14.62,11.33-14.62C124.72,224,126.68,225.1,126.68,227.2Zm-4.1,10.08c0-1.83-.38-3.16-2.14-3.16s-5,2.27-5,7c0,2.23.77,4.24,2.52,4.24C121.3,245.41,122.58,240.15,122.58,237.28Z" transform="translate(0.32 1)"/><path class="cls-3" d="M127.63,242.37a2,2,0,0,1,1.79-2.22,1.34,1.34,0,0,1,1.37,1.36c0,1.37-1.11,1.16-1.11,2.23s1.11,1.62,2.18,1.62c4.27,0,7-8.42,7.43-12.14-.89,1.71-3.24,3.94-6,3.94-2.22,0-5-1.33-5-4.54A9,9,0,0,1,137,224c2.69,0,6.58,1.67,6.58,7.4s-4.4,14.62-11.37,14.62C130.45,246.05,127.63,245.06,127.63,242.37Zm4.57-9.57c0,1.83.38,3.12,2.09,3.12,2.7,0,5.09-3.25,5.09-7.06,0-2.22-.64-4.19-2.52-4.19C133.27,224.67,132.2,229.93,132.2,232.8Z" transform="translate(0.32 1)"/><path class="cls-3" d="M147.66,238.52a3.08,3.08,0,0,0-1.45.35.25.25,0,0,1-.26-.26,2.84,2.84,0,0,1,2.74-2.22h5.17a3.63,3.63,0,0,0,1.49-.35c.17,0,.22.13.22.26a2.78,2.78,0,0,1-2.7,2.22Z" transform="translate(0.32 1)"/><path class="cls-3" d="M170.76,242.33c-1.33,2-2.91,3.89-5,3.89-2.39,0-4.87-.64-6.62-.64-.47,0-1,.42-1.54.42s-1-.72-1-1.11.76-.94,2.35-2.14c4.31-3.29,10.21-8.5,10.21-13.8,0-2.65-1.19-3.81-3.25-3.81-2.26,0-3.89,1.8-3.89,3s1.54,1,1.54,2.23a1.37,1.37,0,0,1-1.41,1.41,2,2,0,0,1-1.84-2.18c0-3,3.25-5.52,6.93-5.52,3.16,0,5.77,1.76,5.77,5.09,0,6-8.12,10.39-12.35,13.55,2.13,0,4.36.6,6.24.6a5.26,5.26,0,0,0,3.54-1.28Z" transform="translate(0.32 1)"/><path class="cls-3" d="M184.69,224.42c3.55,0,5.94,2.56,5.94,6.2,0,9-5,15.77-10.9,15.77-3.2,0-6.41-2.61-6.41-7.14C173.32,231.94,178.88,224.42,184.69,224.42Zm-7.39,15.77c0,3.42,1.06,5.26,3.54,5.26,3.59,0,5.95-8.34,5.95-15.69,0-3-1.24-4.44-2.91-4.44C180,225.32,177.3,233.78,177.3,240.19Z" transform="translate(0.32 1)"/><path class="cls-3" d="M195.55,228c0-.26-.17-.39-.47-.39a8.1,8.1,0,0,0-1.45.13V227a7.54,7.54,0,0,0,4.27-2.48c.38-.39.51-.43.77-.43s1.5,1.2,1.5,1.58a6.23,6.23,0,0,1-.26,1.11c-1.8,6.33-3.76,13.64-4.92,18.51-.12.64-3.16.77-3.89.77a.27.27,0,0,1-.3-.3c0-.17.09-.26.26-.64s3.46-12.82,4.32-16.29A3.84,3.84,0,0,0,195.55,228Z" transform="translate(0.32 1)"/><path class="cls-3" d="M200.42,242.37a2,2,0,0,1,1.8-2.22,1.34,1.34,0,0,1,1.36,1.36c0,1.37-1.11,1.16-1.11,2.23s1.11,1.62,2.18,1.62c4.28,0,7.06-8.42,7.44-12.14-.9,1.71-3.25,3.94-6,3.94-2.22,0-5-1.33-5-4.54a9,9,0,0,1,8.72-8.59c2.7,0,6.59,1.67,6.59,7.4S212,246.05,205,246.05C203.24,246.05,200.42,245.06,200.42,242.37ZM205,232.8c0,1.83.38,3.12,2.09,3.12,2.69,0,5.09-3.25,5.09-7.06,0-2.22-.64-4.19-2.53-4.19C206.06,224.67,205,229.93,205,232.8Z" transform="translate(0.32 1)"/><path class="cls-4" d="M215,68.69" transform="translate(0.32 1)"/><path class="cls-4" d="M87.52,94c-24.31,0-39.1,11.27-39.1,11.27l15.5-51.08c37.69.35,47.2.35,55,.35,21.84,0,29.59-26.77,29.59-28.88a1.29,1.29,0,0,0-1.41-1.41c-2.47,0-3.17,7.4-22.9,7.4H71.67C62.51,31.6,61.1,41.11,59,48.15c0,0-16.56,53.19-16.56,56.36s2.82,5.29,6,5.29c3.87,0,11.62-9.16,31.35-9.16,15.85,0,25.36,14.09,25.36,35.58,0,29.23-12.68,65.52-45.44,65.52-14.44,0-23.95-7.75-23.95-17.62,0-7.39,8.1-10.21,8.1-17.61,0-5.64-3.87-9.16-9.16-9.16-7.4,0-12.68,6.34-12.68,16.21,0,21.84,19.73,34.52,46.85,34.52,31.35,0,64.81-29.59,64.81-69.05C133.66,107.33,107.25,94,87.52,94Z" transform="translate(0.32 1)"/><path class="cls-4" d="M232.85,24.2c-27.81,0-54.28,21.54-71.33,51.55h22.1c10.23-25.93,25.09-45.21,42.54-45.21,15.5,0,27.13,12.68,27.13,37.69,0,60.59-20.79,130.34-52.14,130.34-12.81,0-21.63-5.42-26.79-15.41h-22.2c9.23,14.31,24,22.1,39.83,22.1,47.56,0,86.66-56,86.66-130C278.65,45.33,262.09,24.2,232.85,24.2Z" transform="translate(0.32 1)"/><path class="cls-4" d="M240.72,72l-.22-.5-.59-.37-.53-.56-1.13-.47-.32-.23h-.45l-1.27-.43-1-.28-1.49-.44-1.81-.3-1.27-.29-.85-.51-1-1.43-.71-.92-.48-.82-.23-.19a9.11,9.11,0,0,0-.93-1.33c-.18-.09-1.73-3-1.73-3L224,59.8l-.45-.19-.9-.24.3.78-.37.45-.81-.56-.45-.19.08.68-.28.32-1.41.25,0,.27.09.28-.37.22.13.5-.32.36-.83.53-.29,1-.73.58-.89,1.4s.89-1.4-.47,1.08c-.7,1.29-.94,1.48-1,1.38v.69l-1,1.08-.29.9-.51.77-.47,1.17-.37.49-.11,1-.6.8-.2.82-.74,1.26-.83.8-.56.9a4.18,4.18,0,0,1-1,1.21l-.78.72L205.2,83l-1,1.26-1.83.88-1.46.43-1.46.8-3.19.31-2.37.69-1.47,1-1.46.43-1.65.7-1.83.79-3.47,1-3.92,1.3-.92.9-1.19.25-.84,1.35-1.74,1.07-4.44-.8-4.06-1.61L161,90.48l-5.59-2.9L150.11,85,143,81.47l-7.3-3.74-2-.94H133l-1.18-.2-5.87-2.37-12.16-6.55-10.54-5.61-6-3.1L94.1,57.51s3.61,3.18,4,3.46l3.5,2.69,2.17.94.61,1.37s2,.94,2.52,1.31,0,.73,0,.73l14,7.76.41.79,1.37,1.54,1.56,1.35,10.46,4.89,16.11,7.93.88,1.83,1.13,0,.63.42,1.08.84H155l.69,0,.76.56.72.37.54.47.71,1.28.57,1.1.76,1,.56,1.42.71,1,.94.92.58,1,.35.6.14.27,0,.59.54.69.62.83.17.73c.17.73.45.46.45.46a6.89,6.89,0,0,0,.25,1c.13.32.9.46.9.46l1.44,1.3.72.06,1.22.65v.64l.26.59-.18,3,.36.23-.17,2.09.49.46-.32.45s-.57,1.4-.62,1.58-.34,1.32-.34,1.32l0,1.49.76.29,1-.3,1.24-.39.78-.49.87-.8,1-1.12,1.29-1.48.65-.76.56-1,.37-.54.93-.81.77.61-10.5,22.64-1-.34-1.08-.42-1-.7-.72-.69-.4-.33-.5-.1-.64.27-.28.35.27.42.41,0,.56.24.29.17L166,139.8l-1.45-.45-.58-.17s-.12-.69-1.68-.08c-1.1.43-1,1.11-1,1.11l.56.11.37-.17.27-.32a.45.45,0,0,1,.6-.08l.27.23v.82l.54.28,4.45.44V142l-20.86,0-.06,4.05s-4.67,16.63-8.87,32.55h79.73l-8.42-32.76.22-3.77H202l0-2.56,8.19-.5h.45l.19-.81-.67-.28-3.23-.05-1.4,0v-.36s1.4.39.33-.49a.86.86,0,0,0-.5-.19l-.55.17-1.05.48H203l-1.4-.29-1.72-.3-9.16-15.68v-.55l.47-.85,0-1.37.28-.4a.27.27,0,0,1,.5,0h1.63l1.68,0h.82l1.41-.34,1,0,1.45-.3.83-.35,1.33-.93h.64l1.23-.71.83-.4.92-.94,1.19-.79c1.2-.8,1.24-.53,1.24-.53l.47-1,1.06-1.12.51-.53.6-1,.46-.31.51-.58,0-.86.6-1,.15-.91c.15-.91.51-.49.51-.49l.51-.81.38-.81v-.41l.87-.94,0-1.14.47-.63v-.72l.23-.73.33-.76.33-.63.43-1.41.38-.76V94.4l.34-1,.51-1.17.24-.86.29-1.09.24-.72V89l.69-.44.33-.68v-.54l.28-.63V86l.65-.94.33-.63.32-.59,0-.81.6-.77.32-.4.29-1,.37-.63.7-1.08.83-.53,1.4-2.75.33-.77.52-1.22.65-.94.65-.58,1-.39,2,.07,2.27.13,3.09.18,1.54.3,1.31.07h1.05l.67.42V72.7Zm-72.41,71s0,0,0,0l0-.06Zm28-5.4-2.62-.67-1.22-.61c-1.22-.61-1.4-.25-1.4-.25l-.6.31V137l.22.51.9.6,6,1.28s1.15,1.47,1.24,1.65a2.49,2.49,0,0,1-.18,1h0L185,142l-.17-.53-.35-.28-.27-.28-.5-.14-.55.17-.64.08-1.68.16-1.09,0-1,0-.38-.41-.07-.31v-.23c0-.07,0-.23.23-.34l.48-.21.44.06.48-.09L180,139l-.77-.24h-.43l-.52.27-.47.4c-.46.4-.32.36-.32.36l-.59.26-1.1.44-1.59.25-1.32-.07-.4-.6L181,122.5l.61-.9.92-.89.83-.62s-.83.62.82-.49.64-.31.64-.31l.6-.17.5-.36.6-.26.64-.27c.64-.26.26.51.26.51l-.46.58c-.47.58-.69.63-.69.63l-.38.94Z" transform="translate(0.32 1)"/></g></svg>